<svg xmlns="http://www.w3.org/2000/svg" width="1280" height="720" viewBox="0 0 640 360">
<title>P4 · CLOSE-UP · LOW ANGLE · DESIGN VIEW — success: oil drop absorbed, flame flares</title>
<defs>
<radialGradient id="lamp"><stop offset="0" stop-color="#ffc861" stop-opacity="0.55"/>
<stop offset="0.45" stop-color="#ffb347" stop-opacity="0.2"/><stop offset="1" stop-color="#ffb347" stop-opacity="0"/></radialGradient>
<radialGradient id="hole"><stop offset="0" stop-color="#000"/><stop offset="0.55" stop-color="#000"/>
<stop offset="1" stop-color="#000" stop-opacity="0"/></radialGradient>
<linearGradient id="dayside" x1="0" x2="1"><stop offset="0" stop-color="#dfeaf5" stop-opacity="0"/>
<stop offset="1" stop-color="#dfeaf5" stop-opacity="0.45"/></linearGradient>
<linearGradient id="beam" x1="0" y1="0" x2="0" y2="1"><stop offset="0" stop-color="#dfeaf5" stop-opacity="0.85"/>
<stop offset="1" stop-color="#dfeaf5" stop-opacity="0.08"/></linearGradient>
<marker id="arr" viewBox="0 0 10 10" refX="8" refY="5" markerWidth="7" markerHeight="7" orient="auto-start-reverse">
<path d="M1,1 L9,5 L1,9" fill="none" stroke="#ffffff" stroke-width="1.6"/></marker>
</defs>
<rect width="640" height="360" fill="#191b24"/>
<polygon points="20,360 92,360 250,0 228,0" fill="#3b2a1c" stroke="#5a412a"/><polygon points="548,360 620,360 412,0 390,0" fill="#3b2a1c" stroke="#5a412a"/><polygon points="160,40 480,40 470,58 170,58" fill="#3b2a1c" stroke="#5a412a"/><rect y="326" width="640" height="34" fill="#2a2e3d" stroke="#4a5068"/><circle cx="320" cy="160" r="330" fill="url(#lamp)" opacity="1.0"/><line x1="390" y1="150" x2="470" y2="150" stroke="#ffd27a" stroke-width="2" opacity="0.6"/><line x1="369.0" y1="101.0" x2="425.0" y2="45.0" stroke="#ffd27a" stroke-width="2" opacity="0.6"/><line x1="320" y1="80" x2="320" y2="0" stroke="#ffd27a" stroke-width="2" opacity="0.6"/><line x1="271.0" y1="101.0" x2="215.0" y2="45.0" stroke="#ffd27a" stroke-width="2" opacity="0.6"/><line x1="250" y1="150" x2="170" y2="150" stroke="#ffd27a" stroke-width="2" opacity="0.6"/><line x1="369.0" y1="199.0" x2="425.0" y2="255.0" stroke="#ffd27a" stroke-width="2" opacity="0.6"/><line x1="271.0" y1="199.0" x2="215.0" y2="255.0" stroke="#ffd27a" stroke-width="2" opacity="0.6"/><g transform="translate(320,330) rotate(0) scale(8.4,8.4)"><line x1="-4" y1="-6" x2="-5" y2="0" stroke="#b8863b" stroke-width="2.4" stroke-linecap="round"/><line x1="4" y1="-6" x2="5" y2="0" stroke="#b8863b" stroke-width="2.4" stroke-linecap="round"/><line x1="-8" y1="-17" x2="-12" y2="-11" stroke="#b8863b" stroke-width="2.4" stroke-linecap="round"/><line x1="8" y1="-17" x2="15" y2="-20" stroke="#b8863b" stroke-width="2.4" stroke-linecap="round"/><path d="M-5,-27 Q0,-36 5,-27" stroke="#b8863b" stroke-width="1.8" fill="none"/><polygon points="-8,-24 8,-24 6.5,-7 -6.5,-7" fill="#241f2c" stroke="#b8863b" stroke-width="1.6"/><path d="M0,-31 C7,-21 6,-11 0,-9 C-6,-11 -7,-21 0,-31Z" fill="#ffcf5a"/><path d="M0,-24 C3,-18 3,-12 0,-11 C-3,-12 -3,-18 0,-24Z" fill="#fff1b8"/><circle cx="0.3" cy="-16" r="1" fill="#2a1a10"/><circle cx="3" cy="-16" r="1" fill="#2a1a10"/><path d="M0.3,-13.6 Q1.7,-12.2 3,-13.6" stroke="#2a1a10" stroke-width="0.7" fill="none"/><line x1="-3.4" y1="-24" x2="-2.8" y2="-7" stroke="#b8863b" stroke-width="0.7" opacity="0.55"/><line x1="3.4" y1="-24" x2="2.8" y2="-7" stroke="#b8863b" stroke-width="0.7" opacity="0.55"/><rect x="-9.5" y="-27" width="19" height="3.2" rx="1" fill="#b8863b"/><rect x="-8" y="-7.5" width="16" height="2.6" rx="1" fill="#b8863b"/><path d="M0,-31 C7,-21 6,-11 0,-9 C-6,-11 -7,-21 0,-31Z" fill="#ffcf5a"/><path d="M0,-24 C3,-18 3,-12 0,-11 C-3,-12 -3,-18 0,-24Z" fill="#fff1b8"/><circle cx="0.3" cy="-16" r="1" fill="#2a1a10"/><circle cx="3" cy="-16" r="1" fill="#2a1a10"/><path d="M0.3,-13.6 Q1.7,-12.2 3,-13.6" stroke="#2a1a10" stroke-width="0.7" fill="none"/></g><path d="M470,175 Q430,150 380,170" fill="none" stroke="#ffe08a" stroke-width="1.5" stroke-dasharray="3 4"/><circle cx="492" cy="186" r="30.800000000000004" fill="url(#lamp)" opacity="0.55"/><path transform="translate(492,186) scale(2.2)" d="M0,-8 C5,-1 5,4 0,5 C-5,4 -5,-1 0,-8Z" fill="#f2a93b" stroke="#ffe08a" stroke-width="0.8"/><circle cx="450" cy="160" r="2" fill="#ffe08a"/><circle cx="420" cy="152" r="2" fill="#ffe08a"/><circle cx="398" cy="160" r="2" fill="#ffe08a"/><mask id="m"><rect width="640" height="360" fill="white"/><circle cx="320" cy="170" r="420" fill="url(#hole)"/></mask><rect width="640" height="360" fill="#0b0b10" opacity="0.6" mask="url(#m)"/>
<rect x="0" y="336" width="640" height="24" fill="#000" opacity="0.72"/><text x="10" y="352" font-family="Consolas, Menlo, monospace" font-size="12" fill="#f4f1e8">P4 · CLOSE-UP · LOW ANGLE · DESIGN VIEW — success: oil drop absorbed, flame flares</text>
</svg>
