<svg xmlns="http://www.w3.org/2000/svg" width="1280" height="720" viewBox="0 0 640 360">
<title>P8 · WIDE · LOW ANGLE · DESIGN VIEW — end of session: daylight at the exit</title>
<defs>
<radialGradient id="lamp"><stop offset="0" stop-color="#ffc861" stop-opacity="0.55"/>
<stop offset="0.45" stop-color="#ffb347" stop-opacity="0.2"/><stop offset="1" stop-color="#ffb347" stop-opacity="0"/></radialGradient>
<radialGradient id="hole"><stop offset="0" stop-color="#000"/><stop offset="0.55" stop-color="#000"/>
<stop offset="1" stop-color="#000" stop-opacity="0"/></radialGradient>
<linearGradient id="dayside" x1="0" x2="1"><stop offset="0" stop-color="#dfeaf5" stop-opacity="0"/>
<stop offset="1" stop-color="#dfeaf5" stop-opacity="0.45"/></linearGradient>
<linearGradient id="beam" x1="0" y1="0" x2="0" y2="1"><stop offset="0" stop-color="#dfeaf5" stop-opacity="0.85"/>
<stop offset="1" stop-color="#dfeaf5" stop-opacity="0.08"/></linearGradient>
<marker id="arr" viewBox="0 0 10 10" refX="8" refY="5" markerWidth="7" markerHeight="7" orient="auto-start-reverse">
<path d="M1,1 L9,5 L1,9" fill="none" stroke="#ffffff" stroke-width="1.6"/></marker>
</defs>
<rect width="640" height="360" fill="#191b24"/>
<rect width="640" height="360" fill="#dfeaf5"/><polygon points="0,360 214,360 270,0 0,0" fill="#2a2e3d" stroke="#4a5068"/><polygon points="426,360 640,360 640,0 370,0" fill="#2a2e3d" stroke="#4a5068"/><line x1="228.0" y1="270.0" x2="412.0" y2="270.0" stroke="#5a412a" stroke-width="2.5"/><line x1="242.0" y1="180.0" x2="398.0" y2="180.0" stroke="#5a412a" stroke-width="2.0"/><line x1="253.2" y1="108.00000000000001" x2="386.8" y2="108.00000000000001" stroke="#5a412a" stroke-width="1.6"/><line x1="261.6" y1="54.00000000000001" x2="378.4" y2="54.00000000000001" stroke="#5a412a" stroke-width="1.3"/><polygon points="270,0 370,0 440,330 200,330" fill="url(#beam)"/><rect y="326" width="640" height="34" fill="#2a2e3d" stroke="#4a5068"/><circle cx="320" cy="300" r="70" fill="url(#lamp)" opacity="1.0"/><g transform="translate(320,330) rotate(0) scale(3.0,3.0)"><line x1="-4" y1="-6" x2="-5" y2="0" stroke="#b8863b" stroke-width="2.4" stroke-linecap="round"/><line x1="4" y1="-6" x2="5" y2="0" stroke="#b8863b" stroke-width="2.4" stroke-linecap="round"/><line x1="-8" y1="-18" x2="-14" y2="-25" stroke="#b8863b" stroke-width="2.4" stroke-linecap="round"/><line x1="8" y1="-18" x2="14" y2="-25" stroke="#b8863b" stroke-width="2.4" stroke-linecap="round"/><path d="M-5,-27 Q0,-36 5,-27" stroke="#b8863b" stroke-width="1.8" fill="none"/><polygon points="-8,-24 8,-24 6.5,-7 -6.5,-7" fill="#241f2c" stroke="#b8863b" stroke-width="1.6"/><path d="M0,-31 C7,-21 6,-11 0,-9 C-6,-11 -7,-21 0,-31Z" fill="#ffcf5a"/><path d="M0,-24 C3,-18 3,-12 0,-11 C-3,-12 -3,-18 0,-24Z" fill="#fff1b8"/><circle cx="0.3" cy="-16" r="1" fill="#2a1a10"/><circle cx="3" cy="-16" r="1" fill="#2a1a10"/><path d="M0.3,-13.6 Q1.7,-12.2 3,-13.6" stroke="#2a1a10" stroke-width="0.7" fill="none"/><line x1="-3.4" y1="-24" x2="-2.8" y2="-7" stroke="#b8863b" stroke-width="0.7" opacity="0.55"/><line x1="3.4" y1="-24" x2="2.8" y2="-7" stroke="#b8863b" stroke-width="0.7" opacity="0.55"/><rect x="-9.5" y="-27" width="19" height="3.2" rx="1" fill="#b8863b"/><rect x="-8" y="-7.5" width="16" height="2.6" rx="1" fill="#b8863b"/><path d="M0,-31 C7,-21 6,-11 0,-9 C-6,-11 -7,-21 0,-31Z" fill="#ffcf5a"/><path d="M0,-24 C3,-18 3,-12 0,-11 C-3,-12 -3,-18 0,-24Z" fill="#fff1b8"/><circle cx="0.3" cy="-16" r="1" fill="#2a1a10"/><circle cx="3" cy="-16" r="1" fill="#2a1a10"/><path d="M0.3,-13.6 Q1.7,-12.2 3,-13.6" stroke="#2a1a10" stroke-width="0.7" fill="none"/></g><rect x="420" y="20" width="200" height="52" fill="#000" opacity="0.7"/><text x="432" y="42" font-family="Consolas, Menlo, monospace" font-size="14" fill="#f4f1e8">YOU ESCAPED · 1:42</text><text x="432" y="60" font-family="Consolas, Menlo, monospace" font-size="11" fill="#f4f1e8">Enter: play again</text>
<rect x="0" y="336" width="640" height="24" fill="#000" opacity="0.72"/><text x="10" y="352" font-family="Consolas, Menlo, monospace" font-size="12" fill="#f4f1e8">P8 · WIDE · LOW ANGLE · DESIGN VIEW — end of session: daylight at the exit</text>
</svg>
